# xmcd
#
# Track frame offsets: 
#        182
#        8935
#        20100
#        26387
#        36080
#        43905
#        56840
#        70220
#        79017
#        93432
#        108600
#        119177
#        131335
#        143825
#        152570
#        175955
#        188300
#        197472
#        210215
#        219000
#        226752
#        236835
#        246945
#        255122
#        264545
#        275732
#        284400
#        294145
#
# Disc length: 3964 seconds
#
# Revision: 1
# Processed by: cddbd v1.4PL0 Copyright (c) Steve Scherf et al.
# Submitted via: ExactAudioCopy v0.90b4
#
DISCID=890f7a1c
DTITLE=Gene Autry - Sing Cowboy Sing (The Gene Autry Collection) - Dis
DTITLE=c 3
DYEAR=1997
DGENRE=Country
TTITLE0=Rudolph The Red-Nosed Reindeer
TTITLE1=Mule Train
TTITLE2=Dear Hearts And Gentle People
TTITLE3=Chattanoogie Shoe Shine Boy
TTITLE4=Peter Cottontail
TTITLE5=Gone Fishin'
TTITLE6=Teardrops From My Eyes (With Jo Stafford)
TTITLE7=(I Got Spurs That) Jingle, Jangle, Jingle
TTITLE8=South Of The Border (Down Mexico Way)
TTITLE9=The Last Round-up
TTITLE10=Don't Fence Me In
TTITLE11=Ridin' Down The Canyon
TTITLE12=I Was Just Walking Out The Door
TTITLE13=You're The Only Star In My Blue Heaven
TTITLE14=The Night Before Christmas Song (With Rosemary Clooney)
TTITLE15=Look Out The Window (With Rosemary Clooney)
TTITLE16=Frosty The Snowman
TTITLE17=Somebody Bigger Than You And I
TTITLE18=Have I Told You Lately That I Love You
TTITLE19=I'm Thinking Tonight Of My Blue Eyes
TTITLE20=Your Cheatin' Heart
TTITLE21=I Hang My Head And Cry
TTITLE22=It's My Lazy Day
TTITLE23=You're The Only Good Thing That Happened To Me
TTITLE24=Harbor Lights
TTITLE25=The Leaf Of Love
TTITLE26=You've Got To Take The Bitter With The Sweet
TTITLE27=Back In The Saddle Again (Closing Theme)
EXTD=
EXTT0=
EXTT1=
EXTT2=
EXTT3=
EXTT4=
EXTT5=
EXTT6=
EXTT7=
EXTT8=
EXTT9=
EXTT10=
EXTT11=
EXTT12=
EXTT13=
EXTT14=
EXTT15=
EXTT16=
EXTT17=
EXTT18=
EXTT19=
EXTT20=
EXTT21=
EXTT22=
EXTT23=
EXTT24=
EXTT25=
EXTT26=
EXTT27=
PLAYORDER=
